<?xml version="1.0" encoding="utf-8"?>
<!-- Generator: Adobe Illustrator 24.2.1, SVG Export Plug-In . SVG Version: 6.00 Build 0)  -->
<svg version="1.1" id="Layer_1" xmlns="http://www.w3.org/2000/svg" xmlns:xlink="http://www.w3.org/1999/xlink" x="0px" y="0px"
	 viewBox="0 0 122.88 95.51" style="enable-background:new 0 0 122.88 95.51;" xml:space="preserve">
<style type="text/css">
	.st0{fill-rule:evenodd;clip-rule:evenodd;}
</style>
<g>
	<path class="st0" d="M12.6,30.14h96.77v37.89H12.6V30.14L12.6,30.14z M52.58,38.5h6.82v13.15c0,1.3-0.21,2.53-0.61,3.69
		c-0.41,1.16-1.04,2.17-1.91,3.04c-0.87,0.87-1.78,1.48-2.73,1.83c-1.33,0.49-2.92,0.74-4.78,0.74c-1.07,0-2.25-0.08-3.52-0.23
		c-1.27-0.15-2.33-0.45-3.19-0.89c-0.85-0.45-1.64-1.08-2.34-1.9c-0.71-0.82-1.19-1.67-1.45-2.54c-0.42-1.4-0.63-2.65-0.63-3.73
		V38.5h6.82v13.47c0,1.2,0.33,2.14,1,2.82c0.67,0.68,1.59,1.02,2.78,1.02c1.17,0,2.09-0.33,2.76-1c0.66-0.66,1-1.61,1-2.83V38.5
		L52.58,38.5z M62.39,38.5h7.53l3.91,6.8l3.8-6.8h7.43l-6.86,10.7l7.51,11.39h-7.68l-4.33-7.09l-4.36,7.09h-7.62l7.61-11.51
		L62.39,38.5L62.39,38.5z M8.32,0h106.24c4.58,0,8.32,3.74,8.32,8.32v78.87c0,4.57-3.74,8.32-8.32,8.32H8.32
		C3.74,95.51,0,91.77,0,87.19V8.32C0,3.74,3.74,0,8.32,0L8.32,0z M117.97,23.29H5.29V88c0,0.64,0.25,1.2,0.67,1.63
		c0.43,0.42,0.99,0.67,1.63,0.67h108.04c0.64,0,1.2-0.25,1.63-0.67c0.43-0.43,0.67-0.99,0.67-1.63V23.29H117.97L117.97,23.29z
		 M106.64,9.35c2.27,0,4.11,1.84,4.11,4.11c0,2.27-1.84,4.11-4.11,4.11c-2.27,0-4.11-1.84-4.11-4.11
		C102.54,11.19,104.38,9.35,106.64,9.35L106.64,9.35z M78.8,9.35c2.27,0,4.11,1.84,4.11,4.11c0,2.27-1.84,4.11-4.11,4.11
		c-2.27,0-4.11-1.84-4.11-4.11C74.69,11.19,76.53,9.35,78.8,9.35L78.8,9.35z M92.72,9.35c2.27,0,4.11,1.84,4.11,4.11
		c0,2.27-1.84,4.11-4.11,4.11c-2.27,0-4.11-1.84-4.11-4.11C88.61,11.19,90.45,9.35,92.72,9.35L92.72,9.35z M66.87,83.68
		c-1.78,0-3.22-1.57-3.22-3.5c0-1.94,1.44-3.5,3.22-3.5h39.65c1.78,0,3.22,1.57,3.22,3.5c0,1.94-1.44,3.5-3.22,3.5H66.87
		L66.87,83.68z M14.96,83.68c-1.76,0-3.19-1.57-3.19-3.5c0-1.94,1.43-3.5,3.19-3.5h36.76c1.76,0,3.19,1.57,3.19,3.5
		c0,1.94-1.43,3.5-3.19,3.5H14.96L14.96,83.68z"/>
</g>
</svg>
